HIERARCHY
ROOT hip
{
	OFFSET 0.000000 0.000000 0.000000 
	CHANNELS 6 Xposition Yposition Zposition Xrotation Zrotation Yrotation
	JOINT abdomen
	{
		OFFSET 0.000000 3.402643 0.000000 
		CHANNELS 3 Xrotation Zrotation Yrotation
		JOINT chest
		{
			OFFSET 0.000000 8.438565 -0.680529 
			CHANNELS 3 Xrotation Zrotation Yrotation
			JOINT neck
			{
				OFFSET 0.000000 10.207942 -0.272212 
				CHANNELS 3 Xrotation Zrotation Yrotation
				JOINT head
				{
					OFFSET 0.000000 3.130431 0.000000 
					CHANNELS 3 Xrotation Zrotation Yrotation
					End Site
					{
						OFFSET 0.000000 3.130435 0.000000 
					}
				}
			}
			JOINT lCollar
			{
				OFFSET 3.470700 6.669187 -0.816635 
				CHANNELS 3 Yrotation Zrotation Xrotation
				JOINT lShldr
				{
					OFFSET 3.198488 0.000000 0.000000 
					CHANNELS 3 Zrotation Yrotation Xrotation
					JOINT lForeArm
					{
						OFFSET 10.139888 0.000000 0.000000 
						CHANNELS 3 Yrotation Zrotation Xrotation
						JOINT lHand
						{
							OFFSET 8.370511 0.000000 0.000000 
							CHANNELS 3 Zrotation Yrotation Xrotation
							End Site
							{
								OFFSET 4.083176 0.000000 0.000000 
							}
						}
					}
				}
			}
			JOINT rCollar
			{
				OFFSET -3.470700 6.669187 -0.816635 
				CHANNELS 3 Yrotation Zrotation Xrotation
				JOINT rShldr
				{
					OFFSET -3.198488 0.000000 0.000000 
					CHANNELS 3 Zrotation Yrotation Xrotation
					JOINT rForeArm
					{
						OFFSET -10.139888 0.000000 0.000000 
						CHANNELS 3 Yrotation Zrotation Xrotation
						JOINT rHand
						{
							OFFSET -8.370511 0.000000 0.000000 
							CHANNELS 3 Zrotation Yrotation Xrotation
							End Site
							{
								OFFSET -4.083176 0.000000 0.000000 
							}
						}
					}
				}
			}
		}
	}
	JOINT lThigh
	{
		OFFSET 5.308129 -1.633274 1.361059 
		CHANNELS 3 Xrotation Zrotation Yrotation
		JOINT lShin
		{
			OFFSET -2.041588 -20.007561 0.000000 
			CHANNELS 3 Xrotation Zrotation Yrotation
			JOINT lFoot
			{
				OFFSET 0.000000 -19.190928 -1.224953 
				CHANNELS 3 Xrotation Yrotation Zrotation
				End Site
				{
					OFFSET 0.000000 -2.449906 4.627600 
				}
			}
		}
	}
	JOINT rThigh
	{
		OFFSET -5.308129 -1.633274 1.361059 
		CHANNELS 3 Xrotation Zrotation Yrotation
		JOINT rShin
		{
			OFFSET 2.041588 -20.007561 0.000000 
			CHANNELS 3 Xrotation Zrotation Yrotation
			JOINT rFoot
			{
				OFFSET 0.000000 -19.190928 -1.224953 
				CHANNELS 3 Xrotation Yrotation Zrotation
				End Site
				{
					OFFSET 0.000000 -2.449906 4.627600 
				}
			}
		}
	}
}
MOTION
Frames: 16
Frame Time: 0.033333
-12.845217 49.638817 136.954620 6.611329 10.634766 -60.642731 61.441486 -9.158781 -17.061901 -15.488282 5.498047 3.759766 51.063168 8.107644 2.471410 -67.900391 -23.925779 34.072269 2.000000 -2.000000 0.000000 -85.546875 -26.757813 -22.293543 -49.519600 -1.682896 -1.902941 -28.677498 38.996578 -76.660988 -2.000000 2.000000 0.000000 58.955078 -17.197268 1.208050 118.683716 -1.417327 -2.924345 35.462067 -70.510948 -37.885365 -30.896614 20.862703 37.758991 39.890957 -4.192948 -3.480489 -0.417459 5.207995 -0.575392 -34.793282 -0.439155 -22.073483 25.123079 4.637967 2.261766 -3.776127 -5.790540 1.728474 
-13.278117 49.205521 137.161774 6.416016 10.820313 -60.488277 61.441486 -9.158781 -17.061901 -15.634768 6.015625 4.052734 51.063168 8.107644 2.471410 -67.548828 -25.029297 33.994141 2.000000 -2.000000 0.000000 -84.208984 -28.466799 -27.597656 -47.595676 -2.015501 -1.903042 -30.106716 39.402828 -75.092102 -2.000000 2.000000 0.000000 57.519531 -12.460936 2.451172 116.941994 -1.190435 -3.126343 30.413282 -71.604660 -35.523216 -32.908195 22.385965 36.939629 43.956299 -3.754025 -3.665765 2.108020 5.128987 -0.401245 -35.893272 -0.672331 -21.296732 27.578358 4.544076 2.422919 -4.634128 -7.017250 2.279758 
-13.714024 49.110985 137.371201 6.445313 11.005859 -60.458984 61.095135 -9.112904 -17.188358 -15.957033 6.884765 4.394532 51.063168 8.107644 2.471410 -67.382813 -26.826170 34.853516 2.000000 -2.000000 0.000000 -83.037109 -29.941408 -34.306641 -46.708515 -1.654908 -1.591375 -32.003845 39.298779 -74.486145 -2.000000 2.000000 0.000000 56.982422 -10.068359 3.066406 116.749924 -1.359396 -2.911217 30.104099 -71.986687 -36.078724 -33.359417 23.759985 38.042042 46.579468 -3.711134 -3.745969 4.108778 5.144326 1.877774 -35.935711 -0.624694 -19.954855 28.483686 4.589501 1.895013 -5.487458 -7.379196 2.746415 
-14.140905 49.418228 137.622314 6.621094 11.171876 -60.574276 60.739548 -9.153488 -17.161812 -16.113281 7.246094 4.638672 51.063168 8.107644 2.471410 -67.265633 -28.066402 35.556641 2.000000 -2.000000 0.000000 -82.607422 -30.351561 -37.900391 -47.935902 -1.728225 -1.841617 -32.670139 39.282253 -74.090256 -2.000000 2.000000 0.000000 56.855473 -8.535156 2.557144 117.628510 -1.398957 -2.903727 30.415936 -71.801376 -35.672897 -33.789116 25.478771 39.254349 47.816319 -3.671979 -3.821969 8.391325 4.905447 4.608451 -35.211952 -0.419039 -20.200838 27.948442 4.511450 2.474103 -4.492272 -7.769436 3.282802 
-14.546842 49.867279 137.950943 6.787110 11.337892 -60.701202 60.417355 -9.279736 -17.300915 -16.132813 7.070312 4.599609 51.063168 8.107644 2.471410 -67.324219 -28.232420 35.776630 2.000000 -2.000000 0.000000 -84.033203 -29.951172 -37.744141 -51.285202 -1.756902 -1.830160 -31.439915 39.162685 -74.312157 -2.000000 2.000000 0.000000 57.363281 -9.111328 1.639081 118.858368 -1.448833 -2.887055 32.047321 -71.134338 -36.478981 -33.367897 25.431894 40.332817 47.083706 -3.559063 -3.841029 12.186987 5.315307 6.657761 -34.861328 -0.400327 -20.184437 27.415371 4.544373 2.254032 -1.910356 -7.957608 2.367159 
-14.919684 50.347847 138.394150 6.992188 11.503906 -60.818359 60.078117 -9.504827 -17.282835 -15.957033 6.884765 4.746094 51.063168 8.107644 2.471410 -66.875000 -28.144529 35.732422 2.000000 -2.000000 0.000000 -86.679688 -29.218750 -35.175781 -56.371979 -1.491814 -2.149061 -28.880539 39.051666 -74.439461 -2.000000 2.000000 0.000000 58.125000 -12.324220 1.191406 120.264534 -1.497579 -2.889873 33.539009 -70.041275 -36.897156 -32.859833 26.144117 38.570747 44.495338 -3.900613 -3.766031 13.238114 5.566760 5.632282 -33.083229 -0.087072 -19.898399 24.768763 4.744937 1.603317 -0.681810 -7.829525 1.476351 
-15.247397 50.875679 138.987778 7.158204 11.669922 -61.130836 59.930859 -9.612755 -17.415253 -15.976563 6.552734 4.833984 51.063168 8.107644 2.471410 -66.572266 -27.675781 35.322266 2.000000 -2.000000 0.000000 -89.208984 -27.851563 -32.187500 -61.289124 -1.336297 -2.334375 -26.843842 39.205975 -75.362640 -2.000000 2.000000 0.000000 58.720699 -16.992188 0.234375 121.850578 -1.557360 -3.040002 36.433472 -69.164017 -38.546326 -32.459846 26.704044 35.828457 40.395893 -4.140493 -3.514288 8.735836 5.996289 2.933029 -30.922066 0.128366 -20.075422 21.248087 4.886344 1.279254 0.385162 -7.462380 1.003438 
-15.517944 51.371986 139.770020 7.353516 11.855470 -61.228466 59.602364 -9.831913 -17.386461 -15.820313 6.191406 4.775391 51.063168 8.107644 2.471410 -66.054688 -27.246090 34.941402 2.000000 -2.000000 0.000000 -90.937500 -26.562500 -29.648438 -64.643509 -1.385497 -2.507525 -25.285906 39.162182 -75.701439 -2.000000 2.000000 0.000000 59.726563 -22.080078 -1.054688 123.603951 -1.595636 -2.885765 37.909809 -67.672485 -38.241695 -32.079876 26.991318 33.111492 35.859970 -4.217497 -3.137632 2.979681 7.071851 0.345424 -28.929211 0.343543 -20.593037 18.426483 4.934482 1.695080 1.575001 -7.083705 -0.240446 
-15.719176 51.687111 140.777924 7.353516 12.021484 -61.560467 59.273693 -10.056933 -17.368616 -15.644531 5.839844 4.883807 51.063168 8.107644 2.471410 -65.703125 -26.601561 34.501953 2.000000 -2.000000 0.000000 -92.080078 -25.380857 -27.406528 -66.050911 -1.329268 -2.549909 -25.428926 39.097698 -76.324188 -2.000000 2.000000 0.000000 60.615238 -27.070309 -2.162646 125.186180 -1.643817 -2.898329 39.359528 -66.741669 -38.327030 -31.620811 27.323278 31.058775 31.269630 -4.562691 -2.828056 -0.530600 8.764612 -2.171672 -27.563541 -0.164423 -20.851803 16.838675 4.929485 1.447184 2.259833 -6.696583 -0.494869 
-15.854797 51.789536 142.005692 7.353516 12.177734 -61.726456 58.946323 -10.202113 -17.485388 -15.488282 5.498047 4.814454 51.063168 8.107644 2.471410 -65.380859 -25.957029 34.067993 2.000000 -2.000000 0.000000 -93.095703 -23.808596 -25.449217 -66.573982 -1.300703 -2.395117 -26.428432 38.900906 -76.948044 -2.000000 2.000000 0.000000 61.367188 -31.015627 -2.519531 126.422745 -1.874828 -2.794667 40.631191 -66.030533 -38.174095 -31.112806 27.771673 30.769571 25.818439 -4.800564 -2.410785 0.364968 9.579462 -3.055274 -27.504076 -1.423733 -20.770615 17.717890 4.972176 1.009748 1.774040 -6.035494 -0.606349 
-15.940893 51.758026 143.410538 7.353516 12.177734 -62.078018 58.817158 -10.494435 -17.624903 -15.498046 5.322266 4.942313 51.063168 8.107644 2.471410 -65.039063 -25.302732 33.759766 2.000000 -2.000000 0.000000 -93.544922 -22.246094 -23.261717 -66.041534 -0.997795 -2.569192 -28.055050 38.909328 -77.417831 -2.000000 2.000000 0.000000 62.197266 -33.105469 -2.808068 126.774582 -1.874262 -2.804412 40.796577 -65.703835 -37.765415 -30.867340 28.206434 30.496891 19.105526 -5.034097 -1.863777 3.180950 10.313680 -3.718264 -27.729401 -2.741690 -21.547239 20.019482 4.824023 1.702523 0.707004 -5.388221 -0.829274 
-15.984518 51.639851 144.965759 7.363282 12.363282 -62.400253 58.674721 -10.793247 -17.463978 -15.332031 5.146484 4.921875 51.063168 8.107644 2.471410 -65.058594 -24.423826 33.613289 2.000000 -2.000000 0.000000 -93.281250 -21.230471 -22.099607 -64.643509 -1.385497 -2.507525 -28.467072 39.087902 -77.290726 -2.000000 2.000000 0.000000 62.578125 -32.548824 -2.011718 126.072052 -1.843885 -2.822207 38.889606 -66.652885 -35.683083 -30.878750 28.807854 30.908436 13.655008 -5.166963 -1.424240 5.416872 10.456635 -4.244493 -27.761402 -4.373950 -21.048431 21.790640 4.842418 1.550426 -1.019889 -4.253561 -0.850336 
-15.992732 51.537430 146.648270 7.363282 12.363282 -62.761578 58.730633 -11.073029 -17.611355 -15.332031 5.146484 4.921875 51.063168 8.107644 2.471410 -65.107422 -23.710938 33.667950 2.000000 -2.000000 0.000000 -91.699219 -20.888674 -21.273012 -61.472023 -1.096076 -2.240599 -29.536781 39.208878 -77.278679 -2.000000 2.000000 0.000000 62.548832 -29.423830 -0.170813 123.956352 -1.584193 -2.914438 34.371746 -68.285698 -31.517607 -30.818323 29.093443 31.378391 11.178486 -5.164137 -1.216458 4.847575 11.169414 -4.169541 -26.481819 -5.389415 -21.591501 21.079409 4.797318 1.775782 -3.443240 -4.051208 -1.075608 
-15.972482 51.395634 148.432648 7.363281 12.548828 -63.046875 58.985085 -11.570394 -17.647831 -15.488282 5.498047 4.990234 51.063168 8.107644 2.471410 -65.234375 -23.349607 33.662106 2.000000 -2.000000 0.000000 -88.574219 -21.357422 -21.367186 -57.075947 -1.464271 -2.180004 -30.633968 39.859608 -76.738335 -2.000000 2.000000 0.000000 62.236328 -24.746094 2.212709 121.503380 -1.685073 -2.861889 29.602869 -70.062943 -27.644831 -33.935452 29.989782 30.761932 18.779716 -4.981165 -2.004193 1.878068 11.008547 -3.511096 -25.873106 -6.871028 -21.142780 21.251284 4.812353 1.948329 -5.151112 -3.934130 -1.464694 
-15.930707 51.253822 150.294525 7.363281 12.548828 -63.222656 59.844307 -12.269459 -17.874535 -15.634766 6.357422 5.009767 51.063168 8.107644 2.471410 -65.605469 -24.160152 33.789066 2.000000 -2.000000 0.000000 -85.937500 -23.027342 -22.490234 -52.853283 -1.583053 -2.036175 -30.637196 40.641666 -75.109650 -2.000000 2.000000 0.000000 62.148438 -20.302738 3.111846 119.211334 -1.416762 -2.934091 26.252602 -71.275612 -25.582628 -36.237331 30.615988 30.460503 24.566957 -4.756612 -2.482842 -0.102158 10.884381 -3.054908 -26.254492 -8.296911 -20.867847 22.479631 4.749710 1.882026 -5.511877 -3.783206 -1.806964 
-15.874352 51.206551 152.207352 7.363281 12.548828 -63.564457 60.673855 -12.848061 -17.975206 -15.761721 7.216797 5.205079 51.063168 8.107644 2.471410 -65.839844 -25.341793 33.984379 2.000000 -2.000000 0.000000 -83.828125 -26.884766 -26.777346 -48.810665 -1.691429 -2.049410 -29.766184 42.011490 -71.198410 -2.000000 2.000000 0.000000 61.484371 -14.609375 3.964844 116.760269 -1.338768 -2.929581 28.606289 -71.963058 -30.533657 -37.282898 30.403522 30.561903 27.766472 -4.718898 -2.565223 -0.826539 10.866162 -2.916461 -25.727528 -9.576198 -20.311296 22.113678 4.758294 1.990071 -4.964201 -3.536872 -2.242002 
